STARTFONT 2.3
FONT -FontForge-Fredoka One-Book-R-Normal--18-180-72-72-P-103-ISO10646-1
SIZE 18 72 72  2
FONTBOUNDINGBOX 25 23 -3 -5
COMMENT "Generated by fontforge, http://fontforge.sourceforge.net"
COMMENT "Copyright (c) 2011 Milena B Brandao (milenabbrandao@gmail.com), with Reserved Font Name "Fredoka""
STARTPROPERTIES 40
FOUNDRY "FontForge"
FAMILY_NAME "Fredoka One"
WEIGHT_NAME "Book"
SLANT "R"
SETWIDTH_NAME "Normal"
ADD_STYLE_NAME ""
PIXEL_SIZE 18
POINT_SIZE 180
RESOLUTION_X 72
RESOLUTION_Y 72
SPACING "P"
AVERAGE_WIDTH 103
CHARSET_REGISTRY "ISO10646"
CHARSET_ENCODING "1"
FONTNAME_REGISTRY ""
CHARSET_COLLECTIONS "ISO10646-1"
BITS_PER_PIXEL 2
FONT_NAME "FredokaOne-Regular"
FACE_NAME "Fredoka One"
COPYRIGHT "Copyright (c) 2011 Milena B Brandao (milenabbrandao@gmail.com), with Reserved Font Name "Fredoka""
FONT_VERSION "1.001"
FONT_ASCENT 14
FONT_DESCENT 4
UNDERLINE_POSITION -2
UNDERLINE_THICKNESS 1
X_HEIGHT 9
CAP_HEIGHT 13
RAW_ASCENT 800
RAW_DESCENT 200
NORM_SPACE 5
RELATIVE_WEIGHT 40
RELATIVE_SETWIDTH 50
SUPERSCRIPT_X 0
SUPERSCRIPT_Y 8
SUPERSCRIPT_SIZE 11
SUBSCRIPT_X 0
SUBSCRIPT_Y 2
SUBSCRIPT_SIZE 11
AVG_LOWERCASE_WIDTH 103
AVG_UPPERCASE_WIDTH 124
ENDPROPERTIES
CHARS 235
STARTCHAR space
ENCODING 32
SWIDTH 253 0
DWIDTH 5 0
BBX 1 1 0 0
BITMAP
00
ENDCHAR
STARTCHAR exclam
ENCODING 33
SWIDTH 267 0
DWIDTH 5 0
BBX 4 14 0 0
BITMAP
04
3F
7F
7F
7F
7F
7F
7F
3F
04
14
3F
7F
3E
ENDCHAR
STARTCHAR quotedbl
ENCODING 34
SWIDTH 429 0
DWIDTH 8 0
BBX 8 6 0 7
BITMAP
7C7C
BDBD
7DBD
7C7C
3C7C
2828
ENDCHAR
STARTCHAR numbersign
ENCODING 35
SWIDTH 749 0
DWIDTH 13 0
BBX 13 13 0 0
BITMAP
00F42E00
01F43E00
01F43D00
1BFABF80
3FFFFFC0
2BFAFE40
03E0B800
17E5F900
BFFFFF40
BFFFFF40
0BC1F000
0B82F000
0B42E000
ENDCHAR
STARTCHAR dollar
ENCODING 36
SWIDTH 475 0
DWIDTH 9 0
BBX 8 16 0 -2
BITMAP
02C0
02D0
07E0
2FFD
7FBD
7D14
7F90
2FFD
06FF
242F
7E6F
7FFE
1BF4
02D0
02D0
0140
ENDCHAR
STARTCHAR percent
ENCODING 37
SWIDTH 838 0
DWIDTH 15 0
BBX 15 15 0 -1
BITMAP
01000A00
1FE01E00
3FF42C00
78787400
7878B000
3EF9D000
1FF3C000
05474A40
000E3FE0
001DBAF4
0038B4B4
00B4B9B4
00E07FF0
02D01F90
01400000
ENDCHAR
STARTCHAR ampersand
ENCODING 38
SWIDTH 748 0
DWIDTH 13 0
BBX 13 14 0 0
BITMAP
01AA0000
0BFF8000
0FEFD000
1F87D000
0F9FD000
0FFF8000
0BFD0000
1FF81A00
3FFD2F40
7FBFBF00
BE2FFD00
7FAFFF80
3FFFFFC0
0BFE6F80
ENDCHAR
STARTCHAR quotesingle
ENCODING 39
SWIDTH 208 0
DWIDTH 4 0
BBX 4 6 0 7
BITMAP
7C
BD
7D
7C
3C
28
ENDCHAR
STARTCHAR parenleft
ENCODING 40
SWIDTH 384 0
DWIDTH 7 0
BBX 7 18 0 -4
BITMAP
01B4
07F8
0FD0
1F40
2F00
3E00
7D00
7D00
7D00
7D00
7D00
7D00
3E00
2E00
1F40
0F90
07F8
01F8
ENDCHAR
STARTCHAR parenright
ENCODING 41
SWIDTH 384 0
DWIDTH 7 0
BBX 7 18 0 -4
BITMAP
B900
BF40
1FC0
07D0
03E0
02F0
02F0
01F4
01F4
01F4
01F4
01F4
02F0
03E0
07D0
1FC0
BF40
BD00
ENDCHAR
STARTCHAR asterisk
ENCODING 42
SWIDTH 503 0
DWIDTH 9 0
BBX 9 9 0 5
BITMAP
004000
03F000
17F600
BFFF80
BFFF80
1FFD00
1FFD00
2FBE00
0A2800
ENDCHAR
STARTCHAR plus
ENCODING 43
SWIDTH 527 0
DWIDTH 9 0
BBX 9 10 0 0
BITMAP
004000
02F000
02F400
16F540
7FFFC0
BFFFC0
16F940
02F400
02F000
005000
ENDCHAR
STARTCHAR comma
ENCODING 44
SWIDTH 238 0
DWIDTH 4 0
BBX 4 7 0 -3
BITMAP
14
7E
BE
7E
2D
7C
60
ENDCHAR
STARTCHAR hyphen
ENCODING 45
SWIDTH 433 0
DWIDTH 8 0
BBX 8 4 0 2
BITMAP
1554
7FFD
7FFD
1AA4
ENDCHAR
STARTCHAR period
ENCODING 46
SWIDTH 237 0
DWIDTH 4 0
BBX 4 4 0 0
BITMAP
14
7E
BE
7D
ENDCHAR
STARTCHAR slash
ENCODING 47
SWIDTH 526 0
DWIDTH 9 0
BBX 9 15 0 -1
BITMAP
000B80
000FC0
002F80
003F40
007E00
00FD00
01FC00
03F400
07F000
0FD000
1FC000
3F4000
7F0000
BD0000
6C0000
ENDCHAR
STARTCHAR zero
ENCODING 48
SWIDTH 608 0
DWIDTH 11 0
BBX 11 15 0 -1
BITMAP
005400
07FF40
1FFFD0
2FFFE0
3F47F0
7F03F4
7E02F4
BE02F4
7E02F4
7F03F4
3F47F0
2FFFE0
1FFFC0
06FE40
001000
ENDCHAR
STARTCHAR one
ENCODING 49
SWIDTH 407 0
DWIDTH 7 0
BBX 7 13 0 0
BITMAP
01F4
07F8
2FF8
7FF8
BFF8
2AF8
02F8
02F8
02F8
02F8
02F8
02F8
01F4
ENDCHAR
STARTCHAR two
ENCODING 50
SWIDTH 609 0
DWIDTH 11 0
BBX 11 14 0 0
BITMAP
005400
0BFF40
2FFFC0
3FFFE0
7F07F0
BE03F0
7D0BF0
002FE0
01BFC0
0BFE00
2FF940
7FFFF4
7FFFF8
3FFFF4
ENDCHAR
STARTCHAR three
ENCODING 51
SWIDTH 608 0
DWIDTH 11 0
BBX 11 15 0 -1
BITMAP
005400
07FF40
1FFFD0
3FEFF0
2F03F4
056BF0
00FFD0
00FFD0
006BF0
7D02F4
7F03F4
7FFFF0
2FFFD0
07FF40
001000
ENDCHAR
STARTCHAR four
ENCODING 52
SWIDTH 592 0
DWIDTH 11 0
BBX 10 14 0 0
BITMAP
010040
0F83E0
1FC7F0
2F87F0
2F47F0
3F47F0
7F07F0
BFAFF0
BFFFF0
BFFFF0
0557F0
0007F0
0007F0
0003E0
ENDCHAR
STARTCHAR five
ENCODING 53
SWIDTH 530 0
DWIDTH 10 0
BBX 9 15 0 -1
BITMAP
015500
1FFF80
2FFF80
3FFF40
3F0000
7FA400
7FFE00
7FFF40
2F7FC0
001FC0
281FC0
BFFF80
7FFF00
1BF900
004000
ENDCHAR
STARTCHAR six
ENCODING 54
SWIDTH 560 0
DWIDTH 10 0
BBX 10 14 0 -1
BITMAP
007FC0
03FFD0
0BFFC0
2FE000
3F4000
7FB900
7FFF80
BFFFD0
BF0BE0
7E0BE0
3FEFD0
1FFF80
07FE00
005000
ENDCHAR
STARTCHAR seven
ENCODING 55
SWIDTH 561 0
DWIDTH 10 0
BBX 10 14 0 0
BITMAP
055500
BFFFE0
BFFFE0
7FFFE0
001FD0
003F80
00BF40
01FE00
02FC00
07F400
0BF000
0BE000
0FD000
0BC000
ENDCHAR
STARTCHAR eight
ENCODING 56
SWIDTH 582 0
DWIDTH 10 0
BBX 10 15 0 -1
BITMAP
005400
0BFF40
2FFFC0
3FAFD0
3F0BE0
3F9FD0
1FFFC0
2FFFC0
7FAFE0
BE07F0
7F07F0
7FFFE0
2FFFC0
07FE00
005000
ENDCHAR
STARTCHAR nine
ENCODING 57
SWIDTH 560 0
DWIDTH 10 0
BBX 10 14 0 0
BITMAP
015000
0BFE00
2FFF80
7FAFD0
BE0BD0
7F5FE0
3FFFE0
1FFFD0
02AFD0
002FC0
05BF40
3FFE00
7FF800
3F9000
ENDCHAR
STARTCHAR colon
ENCODING 58
SWIDTH 238 0
DWIDTH 4 0
BBX 4 9 0 0
BITMAP
7E
BE
7E
14
00
14
7E
BE
7D
ENDCHAR
STARTCHAR semicolon
ENCODING 59
SWIDTH 237 0
DWIDTH 4 0
BBX 4 12 0 -3
BITMAP
7E
BE
7E
14
00
14
7E
BE
7E
2D
7C
60
ENDCHAR
STARTCHAR less
ENCODING 60
SWIDTH 627 0
DWIDTH 11 0
BBX 11 13 0 0
BITMAP
000010
0001F8
000BFC
00BFF4
07FF40
2FF800
BFD000
7FE000
1FFD00
02FF90
002FF8
0007FC
0000B4
ENDCHAR
STARTCHAR equal
ENCODING 61
SWIDTH 478 0
DWIDTH 9 0
BBX 8 8 0 0
BITMAP
1554
7FFF
7FFF
1555
1555
7FFF
7FFF
1554
ENDCHAR
STARTCHAR greater
ENCODING 62
SWIDTH 627 0
DWIDTH 11 0
BBX 11 13 0 0
BITMAP
100000
7D0000
BFD000
2FF800
07FF80
007FF4
000BFC
001FF8
01FFE0
0BFE00
7FF400
BF8000
380000
ENDCHAR
STARTCHAR question
ENCODING 63
SWIDTH 512 0
DWIDTH 9 0
BBX 9 14 0 0
BITMAP
015000
1FFD00
7FFF40
BE6F80
7C0F80
002F80
01FF40
02FD00
02F000
004000
004000
03F000
03F400
02E000
ENDCHAR
STARTCHAR at
ENCODING 64
SWIDTH 908 0
DWIDTH 16 0
BBX 16 15 0 -3
BITMAP
006FF900
02FFFFD0
0BE55BF4
2F4659BC
3D2FFD3D
7C7EFD2E
B8B87C1F
B8B8BC1F
7CBFFC2E
7C2FF83D
3E047EFC
1F907FF4
0BFF5A80
01FF4000
00050000
ENDCHAR
STARTCHAR A
ENCODING 65
SWIDTH 765 0
DWIDTH 14 0
BBX 14 13 0 0
BITMAP
001F0000
003F8000
007FD000
00FFE000
01FFF000
03FBF800
07F5FC00
0FF6FE00
1FFFFF00
2FFFFF80
7F556FC0
BE000FD0
7D000780
ENDCHAR
STARTCHAR B
ENCODING 66
SWIDTH 646 0
DWIDTH 12 0
BBX 11 14 0 0
BITMAP
055400
3FFFD0
7FFFF0
7FFFF8
7F02F8
7F06F8
7F2FF4
7F2FF4
7F06FC
7F00FC
7F55FC
7FFFF8
7FFFF4
3FFF90
ENDCHAR
STARTCHAR C
ENCODING 67
SWIDTH 679 0
DWIDTH 12 0
BBX 12 14 0 0
BITMAP
000540
00BFF4
07FFFE
1FFFFE
3FD028
7F4000
7E0000
BE0000
7E0000
7F4000
2FE06C
1FFFFE
07FFFD
00BFE4
ENDCHAR
STARTCHAR D
ENCODING 68
SWIDTH 704 0
DWIDTH 13 0
BBX 13 14 0 0
BITMAP
05500000
3FFF8000
7FFFF000
7FFFFC00
7F02FE00
7F00BF00
7F003F00
7F003F40
7F003F00
7F00BF00
7F56FD00
7FFFF800
7FFFE000
3FFE4000
ENDCHAR
STARTCHAR E
ENCODING 69
SWIDTH 638 0
DWIDTH 11 0
BBX 11 14 0 0
BITMAP
055550
3FFFFC
7FFFFC
7FFFF8
7F0000
7F5500
7FFFC0
7FFFC0
7FFF80
7F0000
7F5550
7FFFFC
7FFFFC
3FFFF8
ENDCHAR
STARTCHAR F
ENCODING 70
SWIDTH 637 0
DWIDTH 11 0
BBX 11 14 0 0
BITMAP
055550
3FFFF8
7FFFFC
7FFFF8
7F0000
7F5500
7FFFC0
7FFFC0
7FFF80
7F0000
7F0000
7F0000
7F0000
3E0000
ENDCHAR
STARTCHAR G
ENCODING 71
SWIDTH 714 0
DWIDTH 13 0
BBX 12 14 0 0
BITMAP
001540
01FFF4
07FFFE
1FFEFD
3FD028
7F0000
7E07FE
BE0BFF
7F06BF
7F403F
2FE07F
0FFFFF
07FFFE
00BFF4
ENDCHAR
STARTCHAR H
ENCODING 72
SWIDTH 699 0
DWIDTH 13 0
BBX 12 13 0 0
BITMAP
3E007E
7F007F
7F007F
7F007F
7F007F
7FFFFF
7FFFFF
7FAABF
7F007F
7F007F
7F007F
7F007F
3E003E
ENDCHAR
STARTCHAR I
ENCODING 73
SWIDTH 257 0
DWIDTH 5 0
BBX 4 13 0 0
BITMAP
3E
7F
7F
7F
7F
7F
7F
7F
7F
7F
7F
7F
3E
ENDCHAR
STARTCHAR J
ENCODING 74
SWIDTH 549 0
DWIDTH 10 0
BBX 9 13 0 0
BITMAP
000BC0
000FC0
000FC0
000FC0
000FC0
000FC0
000FC0
000FC0
000FC0
7D2FC0
BFFF80
7FFF00
1BF800
ENDCHAR
STARTCHAR K
ENCODING 75
SWIDTH 639 0
DWIDTH 12 0
BBX 11 14 0 0
BITMAP
000050
3E01F4
7F07F8
7F0FF4
7F3FD0
7FBF40
7FFD00
7FF800
7FFE00
7FBF80
7F2FD0
7F0BF4
7F03F8
3E00F4
ENDCHAR
STARTCHAR L
ENCODING 76
SWIDTH 587 0
DWIDTH 11 0
BBX 10 13 0 0
BITMAP
3E0000
7F0000
7F0000
7F0000
7F0000
7F0000
7F0000
7F0000
7F0000
7F0000
7FAA90
7FFFF0
3FFFE0
ENDCHAR
STARTCHAR M
ENCODING 77
SWIDTH 870 0
DWIDTH 16 0
BBX 15 13 0 0
BITMAP
3E0001F8
7F8003FC
7FD00BFC
7FF42FFC
7FFC7FFC
7FFEFFFC
7F7FFDFC
7F2FF5FC
7F0BD1FC
7F0241FC
7F0001FC
7F0001FC
2E0000B8
ENDCHAR
STARTCHAR N
ENCODING 78
SWIDTH 720 0
DWIDTH 13 0
BBX 13 13 0 0
BITMAP
3E002F00
7F803F40
7FD03F40
7FF03F40
7FF83F40
7FFE3F40
7F7F7F40
7F2FFF40
7F0BFF40
7F03FF40
7F01FF40
7F00BF40
3E002E00
ENDCHAR
STARTCHAR O
ENCODING 79
SWIDTH 775 0
DWIDTH 14 0
BBX 14 15 0 -1
BITMAP
00050000
01BFE400
07FFFD00
1FFFFF40
3FD07FC0
7F401FD0
7E000BD0
BE000BD0
7E000FD0
7F401FC0
3FD07F80
1FFFFF40
07FFFD00
01BFE400
00050000
ENDCHAR
STARTCHAR P
ENCODING 80
SWIDTH 632 0
DWIDTH 11 0
BBX 11 14 0 0
BITMAP
055000
3FFF80
7FFFE0
7FFFF4
7F02F8
7F01FC
7F02F8
7FAFF8
7FFFF0
7FFF80
7F5400
7F0000
7F0000
3E0000
ENDCHAR
STARTCHAR Q
ENCODING 81
SWIDTH 830 0
DWIDTH 15 0
BBX 15 15 0 -1
BITMAP
00050000
01BFE400
07FFFD00
1FFFFF40
3FD07FC0
7F401FD0
7E000BD0
BE000BD0
7E000FD0
7F401FC0
3FD07FC0
1FFFFFF4
07FFFFF8
01BFE5F0
00050000
ENDCHAR
STARTCHAR R
ENCODING 82
SWIDTH 631 0
DWIDTH 11 0
BBX 11 14 0 0
BITMAP
055000
3FFF80
7FFFE0
7FFFF4
7F02F8
7F01FC
7F02FC
7FAFF8
7FFFF0
7FFFE0
7F57F4
7F02F8
7F01FC
3E00F8
ENDCHAR
STARTCHAR S
ENCODING 83
SWIDTH 583 0
DWIDTH 11 0
BBX 10 14 0 0
BITMAP
005400
0BFF40
2FFFD0
3FAFC0
7F0100
7F9000
2FFE40
0BFFD0
01BFE0
1407F0
7E07F0
7FEFE0
2FFFC0
07FE00
ENDCHAR
STARTCHAR T
ENCODING 84
SWIDTH 731 0
DWIDTH 13 0
BBX 13 14 0 0
BITMAP
15555500
BFFFFF80
BFFFFF80
157F5540
003F0000
003F0000
003F0000
003F0000
003F0000
003F0000
003F0000
003F0000
003F0000
002E0000
ENDCHAR
STARTCHAR U
ENCODING 85
SWIDTH 726 0
DWIDTH 13 0
BBX 13 15 0 -1
BITMAP
04000400
3E002F40
7F003F40
7F003F40
7F003F40
7F003F40
7F003F40
7F003F40
7F003F40
3F407F00
2FD1FE00
1FFFFD00
07FFF800
01BFD000
00040000
ENDCHAR
STARTCHAR V
ENCODING 86
SWIDTH 783 0
DWIDTH 14 0
BBX 14 14 0 0
BITMAP
04000100
7D0007D0
BE000BE0
7F400FD0
2F802F80
1FC03F40
0BE0BE00
07F0FD00
02F9FC00
01FFF400
00BFF000
007FD000
002FC000
001F4000
ENDCHAR
STARTCHAR W
ENCODING 87
SWIDTH 999 0
DWIDTH 18 0
BBX 18 14 0 0
BITMAP
0400000100
7D01F407D0
BE02F80BE0
7F03FC0FD0
3F47FD1FC0
2F8BFE2F80
1FCFFF3F40
0FEFAFBF00
0BFF5FFE00
07FF0FFD00
03FE0BFC00
02FD07F800
01FC03F400
00B402E000
ENDCHAR
STARTCHAR X
ENCODING 88
SWIDTH 741 0
DWIDTH 13 0
BBX 13 14 0 0
BITMAP
14000500
7E001F80
BF403FC0
3FD0FF40
0FF6FD00
07FFF400
01FFE000
00BFC000
02FFF000
07FBF800
1FE1FE00
7FC0BF80
BF002FC0
3D000B40
ENDCHAR
STARTCHAR Y
ENCODING 89
SWIDTH 686 0
DWIDTH 12 0
BBX 12 14 0 0
BITMAP
040004
7D003E
BF00BF
3F81FD
1FD3F8
0BFBF0
03FFD0
01FF80
00BF00
007E00
007E00
007E00
007E00
007D00
ENDCHAR
STARTCHAR Z
ENCODING 90
SWIDTH 643 0
DWIDTH 12 0
BBX 11 14 0 0
BITMAP
055540
7FFFF8
BFFFF8
7FFFF4
001FE0
003FC0
00BF40
01FE00
03F800
0BF000
2FD000
7FFFFC
7FFFFC
3FFFF8
ENDCHAR
STARTCHAR bracketleft
ENCODING 91
SWIDTH 348 0
DWIDTH 6 0
BBX 6 18 0 -4
BITMAP
2FE0
7FF0
7F90
7E00
7E00
7E00
7E00
7E00
7E00
7E00
7E00
7E00
7E00
7E00
7E00
7E90
7FF0
3FF0
ENDCHAR
STARTCHAR backslash
ENCODING 92
SWIDTH 528 0
DWIDTH 10 0
BBX 9 15 0 -1
BITMAP
7C0000
BE0000
7F0000
2F8000
1FC000
0BD000
07F000
03F400
01FC00
00FD00
007F00
003F40
001F80
000FC0
000780
ENDCHAR
STARTCHAR bracketright
ENCODING 93
SWIDTH 348 0
DWIDTH 6 0
BBX 6 18 0 -4
BITMAP
7FD0
BFE0
6BE0
07E0
07E0
07E0
07E0
07E0
07E0
07E0
07E0
07E0
07E0
07E0
07E0
6BE0
BFE0
BFD0
ENDCHAR
STARTCHAR asciicircum
ENCODING 94
SWIDTH 526 0
DWIDTH 9 0
BBX 8 6 1 4
BITMAP
0240
0FD0
3FF4
FEFD
F83E
5004
ENDCHAR
STARTCHAR underscore
ENCODING 95
SWIDTH 826 0
DWIDTH 15 0
BBX 15 3 0 -4
BITMAP
15555550
BFFFFFF8
BFFFFFF4
ENDCHAR
STARTCHAR grave
ENCODING 96
SWIDTH 482 0
DWIDTH 9 0
BBX 6 4 1 10
BITMAP
2900
7FE0
2FF0
0190
ENDCHAR
STARTCHAR a
ENCODING 97
SWIDTH 596 0
DWIDTH 11 0
BBX 10 10 0 0
BITMAP
015150
0BFFF0
2FFFF0
7FEFF0
7E0BF0
BE07F0
7F5BF0
3FFFF0
1FFFF0
06E6E0
ENDCHAR
STARTCHAR b
ENCODING 98
SWIDTH 592 0
DWIDTH 11 0
BBX 11 14 0 0
BITMAP
2D0000
7F0000
7F0000
7F0000
7F1400
7FFF40
7FFFD0
7FEFF0
7F47F0
7F03F4
7F9BF0
7FFFE0
7FFF80
3EBE00
ENDCHAR
STARTCHAR c
ENCODING 99
SWIDTH 517 0
DWIDTH 9 0
BBX 9 10 0 0
BITMAP
016400
0BFF40
2FFF80
7FEF40
7F0100
BE0000
7F5A00
3FFF80
1FFF80
06FE00
ENDCHAR
STARTCHAR d
ENCODING 100
SWIDTH 598 0
DWIDTH 11 0
BBX 10 14 0 0
BITMAP
0002E0
0003F0
0003F0
0003F0
0153F0
0BFFF0
2FFFF0
3FEFF0
7F07F0
7E07F0
7F5BF0
3FFFF0
1FFFF0
02F6E0
ENDCHAR
STARTCHAR e
ENCODING 101
SWIDTH 573 0
DWIDTH 10 0
BBX 10 11 0 -1
BITMAP
01A900
0BFF80
2FFFD0
7F9BE0
7F5BE0
BFFFD0
7F5540
3FEA80
1FFFD0
07FF80
001400
ENDCHAR
STARTCHAR f
ENCODING 102
SWIDTH 450 0
DWIDTH 8 0
BBX 8 14 0 0
BITMAP
01BC
07FD
0BFD
0FD0
1FD4
BFFE
BFFE
6FE9
0FC0
0FC0
0FC0
0FC0
0FC0
0B80
ENDCHAR
STARTCHAR g
ENCODING 103
SWIDTH 585 0
DWIDTH 11 0
BBX 10 14 0 -4
BITMAP
015150
0BFFE0
2FFFE0
7FAFE0
7E0BE0
BE07E0
7F9FE0
3FFFE0
0FFFE0
02A7E0
090BE0
2FFFD0
2FFF80
06FD00
ENDCHAR
STARTCHAR h
ENCODING 104
SWIDTH 605 0
DWIDTH 11 0
BBX 11 14 0 0
BITMAP
2D0000
7F0000
7F0000
7F0000
7F1400
7FFF80
7FFFD0
7FEFF0
7F07F0
7F03F4
7F03F4
7F03F4
7F03F0
3E02E0
ENDCHAR
STARTCHAR i
ENCODING 105
SWIDTH 255 0
DWIDTH 5 0
BBX 4 14 0 0
BITMAP
2D
7F
3E
04
14
7E
7F
7F
7F
7F
7F
7F
7F
3E
ENDCHAR
STARTCHAR j
ENCODING 106
SWIDTH 252 0
DWIDTH 5 0
BBX 7 18 -3 -4
BITMAP
00B4
01F8
00F8
0010
0064
01F8
01F8
01F8
01F8
01F8
01F8
01F8
01F8
01F8
02F8
3FF4
7FE0
7F40
ENDCHAR
STARTCHAR k
ENCODING 107
SWIDTH 536 0
DWIDTH 10 0
BBX 10 14 0 0
BITMAP
2E0000
7F0000
7F0000
7F0000
7F0000
7F1F00
7F7F80
7FFF40
7FFD00
7FF800
7FFE00
7FBFC0
7F2FD0
3E0780
ENDCHAR
STARTCHAR l
ENCODING 108
SWIDTH 327 0
DWIDTH 6 0
BBX 6 14 0 0
BITMAP
2E00
7F00
7F00
7F00
7F00
7F00
7F00
7F00
7F00
7F00
7F00
7FD0
3FE0
1BD0
ENDCHAR
STARTCHAR m
ENCODING 109
SWIDTH 851 0
DWIDTH 15 0
BBX 15 10 0 0
BITMAP
14140540
7EFF6FD0
7FFFFFF0
7FFFFBF4
7F0FD2F8
7F0FD2F8
7F0FD2F8
7F0FD2F8
7F0FD2F8
3E0BC1F4
ENDCHAR
STARTCHAR n
ENCODING 110
SWIDTH 606 0
DWIDTH 11 0
BBX 11 10 0 0
BITMAP
151500
7FFF80
7FFFD0
7FEFF0
7F07F0
7F03F4
7F03F4
7F03F4
7F03F4
3E02E0
ENDCHAR
STARTCHAR o
ENCODING 111
SWIDTH 600 0
DWIDTH 11 0
BBX 11 10 0 0
BITMAP
01A900
0BFF80
2FFFD0
7FAFF0
7E03F4
BE03F4
7F47F0
3FFFE0
1FFFC0
06FE00
ENDCHAR
STARTCHAR p
ENCODING 112
SWIDTH 582 0
DWIDTH 10 0
BBX 10 14 0 -4
BITMAP
141400
7FFF40
7FFFD0
7FEFE0
7F07F0
7F03F0
7F9BE0
7FFFD0
7FFF80
7E6900
7E0000
7E0000
7E0000
3E0000
ENDCHAR
STARTCHAR q
ENCODING 113
SWIDTH 582 0
DWIDTH 10 0
BBX 10 14 0 -4
BITMAP
015140
0BFBE0
2FFFE0
7FAFE0
7E0BE0
BE07E0
7F5FE0
3FFFE0
1FFFE0
02A7E0
0007E0
0007E0
0007E0
0003E0
ENDCHAR
STARTCHAR r
ENCODING 114
SWIDTH 457 0
DWIDTH 8 0
BBX 8 10 0 0
BITMAP
1518
7FFF
7FFE
7FA9
7F00
7F00
7F00
7F00
7F00
3E00
ENDCHAR
STARTCHAR s
ENCODING 115
SWIDTH 489 0
DWIDTH 9 0
BBX 9 10 0 0
BITMAP
06A400
2FFE00
3FFE00
7E0400
3FF800
1FFF00
05BF40
3E6F40
7FFF00
1FF900
ENDCHAR
STARTCHAR t
ENCODING 116
SWIDTH 449 0
DWIDTH 8 0
BBX 8 13 0 0
BITMAP
0640
0FC0
0FC0
1FD4
BFFE
BFFE
6FE9
0FC0
0FC0
0FC0
0FFC
0BFD
01FC
ENDCHAR
STARTCHAR u
ENCODING 117
SWIDTH 606 0
DWIDTH 11 0
BBX 11 10 0 0
BITMAP
150150
7E03F0
7F03F4
7F03F4
7F03F4
7F03F4
3F9BF4
2FFFF4
1FFFF4
06F6E0
ENDCHAR
STARTCHAR v
ENCODING 118
SWIDTH 638 0
DWIDTH 11 0
BBX 11 10 0 0
BITMAP
180060
BD00FC
BF02FC
3F83F8
1FCBF0
0FEFD0
07FF80
02FF40
00FE00
007800
ENDCHAR
STARTCHAR w
ENCODING 119
SWIDTH 793 0
DWIDTH 14 0
BBX 14 10 0 0
BITMAP
14050140
BD1F83F0
BE2FCBE0
3F7FDFD0
2FFFFFC0
1FFFFF80
0FFEFF40
07F9FE00
03F4FD00
01E07800
ENDCHAR
STARTCHAR x
ENCODING 120
SWIDTH 567 0
DWIDTH 10 0
BBX 10 10 0 0
BITMAP
140140
7E07E0
BF9FE0
2FFFC0
0BFF00
07FE00
1FFF80
7FEFD0
BF0BF0
3C02D0
ENDCHAR
STARTCHAR y
ENCODING 121
SWIDTH 604 0
DWIDTH 11 0
BBX 11 15 0 -5
BITMAP
180090
BE02F4
7F03F4
3F87F0
1FDFD0
0BFFC0
03FF80
02FF00
00FE00
00FD00
02F800
03F400
07F000
07D000
004000
ENDCHAR
STARTCHAR z
ENCODING 122
SWIDTH 586 0
DWIDTH 11 0
BBX 10 10 0 0
BITMAP
155540
3FFFE0
3FFFE0
1ABFD0
00FF00
07F800
1FF500
7FFFF0
7FFFF0
3FFFE0
ENDCHAR
STARTCHAR braceleft
ENCODING 123
SWIDTH 381 0
DWIDTH 7 0
BBX 7 18 0 -4
BITMAP
01B4
07F8
0BE4
0BC0
0BC0
0BC0
0BC0
1F80
BF40
BF40
1F80
0BC0
0BC0
0BC0
0BC0
0BE0
07F8
01F4
ENDCHAR
STARTCHAR bar
ENCODING 124
SWIDTH 217 0
DWIDTH 4 0
BBX 4 18 0 -4
BITMAP
28
7D
7D
7D
7D
7D
7D
7D
7D
7D
7D
7D
7D
7D
7D
7D
7D
3C
ENDCHAR
STARTCHAR braceright
ENCODING 125
SWIDTH 381 0
DWIDTH 7 0
BBX 7 18 0 -4
BITMAP
7900
BF00
6F40
0F40
0F80
0F80
0F80
0F90
07F4
07F8
0FD0
0F80
0F40
0F40
0F40
6F40
BF00
BD00
ENDCHAR
STARTCHAR asciitilde
ENCODING 126
SWIDTH 651 0
DWIDTH 12 0
BBX 10 4 1 3
BITMAP
1A8240
7FFFD0
FFFFC0
B4BE00
ENDCHAR
STARTCHAR exclamdown
ENCODING 161
SWIDTH 268 0
DWIDTH 5 0
BBX 4 13 0 -4
BITMAP
3F
7F
3F
04
15
3F
7F
7F
7F
7F
7F
7F
3E
ENDCHAR
STARTCHAR cent
ENCODING 162
SWIDTH 434 0
DWIDTH 8 0
BBX 8 14 0 -2
BITMAP
01D0
02D0
02D0
0BF8
2FFD
7FB8
7D00
7D10
7FFC
1FFD
07E4
02D0
02D0
0040
ENDCHAR
STARTCHAR sterling
ENCODING 163
SWIDTH 675 0
DWIDTH 12 0
BBX 12 14 0 0
BITMAP
000500
00BFE4
03FFFD
0BFAFD
0FD028
0FC000
6FE900
BFFE00
6FF900
07E000
0BD000
0FFFFE
2FFFFF
1FFFFE
ENDCHAR
STARTCHAR currency
ENCODING 164
SWIDTH 677 0
DWIDTH 12 0
BBX 12 14 0 0
BITMAP
280019
7D417E
3FFFFD
1FFFF4
2FEAFC
3F00BD
3E007D
3E007D
3F00BD
2F96FC
1FFFF4
3FFFFC
7D417E
280019
ENDCHAR
STARTCHAR yen
ENCODING 165
SWIDTH 677 0
DWIDTH 12 0
BBX 12 13 0 0
BITMAP
7D003D
BF00BF
7F81FD
2FD3F8
0BEBF0
07FFD0
06FFD0
0FFFF4
05BE50
05BE50
0FFFF4
06BFA0
007D00
ENDCHAR
STARTCHAR brokenbar
ENCODING 166
SWIDTH 215 0
DWIDTH 4 0
BBX 3 18 0 -4
BITMAP
28
7C
7C
7C
7C
7C
7C
7C
10
00
3C
7C
7C
7C
7C
7C
7C
3C
ENDCHAR
STARTCHAR section
ENCODING 167
SWIDTH 560 0
DWIDTH 10 0
BBX 10 18 0 -4
BITMAP
06A900
1FFF80
3FFF80
7F0B40
7F0000
3FE900
2FFF80
3FFFD0
7F0BE0
7F4BE0
3FFFD0
1FFFC0
01BFD0
140BE0
7E0BE0
7FFFD0
2FFF80
07F900
ENDCHAR
STARTCHAR dieresis
ENCODING 168
SWIDTH 489 0
DWIDTH 9 0
BBX 9 4 0 10
BITMAP
2E0B40
7F1F80
3E1F80
040500
ENDCHAR
STARTCHAR copyright
ENCODING 169
SWIDTH 711 0
DWIDTH 13 0
BBX 13 13 0 1
BITMAP
00554000
07FFF400
1E407D00
387F4E00
75FF8700
73D00740
B3C00740
72D14740
75FF8B00
386E4E00
1F55BD00
06FFE000
00150000
ENDCHAR
STARTCHAR ordfeminine
ENCODING 170
SWIDTH 445 0
DWIDTH 8 0
BBX 8 7 0 6
BITMAP
0AA8
2FFD
7EBD
B83D
7DBD
3FFD
0BAC
ENDCHAR
STARTCHAR guillemotleft
ENCODING 171
SWIDTH 668 0
DWIDTH 12 0
BBX 12 10 0 0
BITMAP
004004
01F03D
07F4FE
1FD3F8
7F4FE0
BE1FD0
3F8BF4
0FE2FD
03F4BE
00A02C
ENDCHAR
STARTCHAR logicalnot
ENCODING 172
SWIDTH 526 0
DWIDTH 9 0
BBX 10 6 0 2
BITMAP
7FFF80
BFFFD0
BFFFD0
0557D0
0007D0
000280
ENDCHAR
STARTCHAR registered
ENCODING 174
SWIDTH 711 0
DWIDTH 13 0
BBX 13 13 0 1
BITMAP
00554000
07FFF400
1E547D00
38FF4E00
74FBC700
70F2D740
B0FFC740
70FF8740
74F2CB00
38919E00
1F55BD00
06FFE000
00150000
ENDCHAR
STARTCHAR degree
ENCODING 176
SWIDTH 407 0
DWIDTH 7 0
BBX 7 7 0 7
BITMAP
0A90
2FF4
7DB8
7878
7DB8
2FF0
0680
ENDCHAR
STARTCHAR plusminus
ENCODING 177
SWIDTH 505 0
DWIDTH 9 0
BBX 9 10 0 0
BITMAP
019000
02F000
6BFA40
BFFF80
7FFF40
02F000
019000
155500
7FFF40
3FFF40
ENDCHAR
STARTCHAR twosuperior
ENCODING 178
SWIDTH 455 0
DWIDTH 8 0
BBX 8 10 0 4
BITMAP
0550
1FF4
3FFD
7D7E
7C7E
15FD
0BF4
3FE9
7FFF
7FFE
ENDCHAR
STARTCHAR threesuperior
ENCODING 179
SWIDTH 457 0
DWIDTH 8 0
BBX 8 11 0 3
BITMAP
0150
1FF8
3FFD
3D3E
01BD
03FD
697E
7D7E
3FFD
1FF4
0140
ENDCHAR
STARTCHAR acute
ENCODING 180
SWIDTH 605 0
DWIDTH 11 0
BBX 6 4 2 10
BITMAP
06A0
3FF0
7FE0
2900
ENDCHAR
STARTCHAR mu
ENCODING 181
SWIDTH 601 0
DWIDTH 11 0
BBX 10 14 0 -4
BITMAP
140150
7E03F0
7F03F0
7F03F0
7F03F0
7F03F0
7F9BF0
7FFFF0
7FFFF0
7FA6E0
7F0000
7F0000
7F0000
2E0000
ENDCHAR
STARTCHAR paragraph
ENCODING 182
SWIDTH 614 0
DWIDTH 11 0
BBX 10 15 0 -4
BITMAP
2FFFE0
7FFBF0
7FF5F0
7FF5F0
7FF5F0
2FF5F0
01F5F0
01F5F0
01F5F0
01F5F0
01F5F0
01F5F0
01F5F0
01F5F0
00F1F0
ENDCHAR
STARTCHAR periodcentered
ENCODING 183
SWIDTH 237 0
DWIDTH 4 0
BBX 4 4 0 4
BITMAP
04
7E
BE
7E
ENDCHAR
STARTCHAR cedilla
ENCODING 184
SWIDTH 559 0
DWIDTH 10 0
BBX 4 5 3 -4
BITMAP
54
BD
5E
BD
14
ENDCHAR
STARTCHAR onesuperior
ENCODING 185
SWIDTH 321 0
DWIDTH 6 0
BBX 5 10 0 4
BITMAP
0140
0BC0
2FC0
BFC0
7FC0
0BC0
0BC0
0BC0
0BC0
07C0
ENDCHAR
STARTCHAR ordmasculine
ENCODING 186
SWIDTH 439 0
DWIDTH 8 0
BBX 8 7 0 6
BITMAP
0690
2FF8
7EBD
B83D
7D7D
3FFC
1BE4
ENDCHAR
STARTCHAR guillemotright
ENCODING 187
SWIDTH 669 0
DWIDTH 12 0
BBX 12 10 0 0
BITMAP
100100
7D0F40
BF5FD0
2FD7F4
0BF1FD
07F4BE
1FE2FC
7F8BF0
BE1FC0
280A00
ENDCHAR
STARTCHAR onequarter
ENCODING 188
SWIDTH 786 0
DWIDTH 14 0
BBX 12 15 1 -1
BITMAP
1900E0
7E01D0
FE0380
AE0740
1E0E00
1E2D00
1E3945
09B6DF
00E3CF
02C7CF
0787FF
0B07FF
1E000F
2C000B
140000
ENDCHAR
STARTCHAR onehalf
ENCODING 189
SWIDTH 804 0
DWIDTH 14 0
BBX 13 15 1 -1
BITMAP
1900E000
7E01D000
FE038000
AE074000
1E0E0000
1E2D0000
1E386400
09B7FD00
00E7EF00
02C78F00
07817E00
0B02F800
1E07FF40
2C07FF40
14000000
ENDCHAR
STARTCHAR threequarters
ENCODING 190
SWIDTH 842 0
DWIDTH 15 0
BBX 13 15 1 -1
BITMAP
1A403800
BFD07400
B6D0E000
0BD1D000
4BD38000
F2EB4000
BFDE5140
2E6DB7C0
0038F7C0
00B1F3C0
01E1FFC0
02C1FFC0
078003C0
0B0002C0
05000000
ENDCHAR
STARTCHAR questiondown
ENCODING 191
SWIDTH 511 0
DWIDTH 9 0
BBX 9 14 0 -4
BITMAP
019000
03F400
03F400
01A000
000000
01A000
07F000
2FF000
7F8000
BD0600
7D0FC0
7FFF80
2FFF00
06F800
ENDCHAR
STARTCHAR Agrave
ENCODING 192
SWIDTH 765 0
DWIDTH 14 0
BBX 14 17 0 0
BITMAP
00F90000
01FFC000
006F8000
00010000
001F0000
003F8000
007FD000
00FFE000
01FFF000
03FBF800
07F5FC00
0FF6FE00
1FFFFF00
2FFFFF80
7F556FC0
BE000FD0
7D000780
ENDCHAR
STARTCHAR Aacute
ENCODING 193
SWIDTH 765 0
DWIDTH 14 0
BBX 14 18 0 0
BITMAP
00005000
001BF000
003FF000
003E4000
00000000
001F0000
003F8000
007FD000
00FFE000
01FFF000
03FBF800
07F5FC00
0FF6FE00
1FFFFF00
2FFFFF80
7F556FC0
BE000FD0
7D000780
ENDCHAR
STARTCHAR Acircumflex
ENCODING 194
SWIDTH 765 0
DWIDTH 14 0
BBX 14 18 0 0
BITMAP
00050000
01BFE000
02FFF400
00A5A000
00000000
001F0000
003F8000
007FD000
00FFE000
01FFF000
03FBF800
07F5FC00
0FF6FE00
1FFFFF00
2FFFFF80
7F556FC0
BE000FD0
7D000780
ENDCHAR
STARTCHAR Atilde
ENCODING 195
SWIDTH 765 0
DWIDTH 14 0
BBX 14 18 0 0
BITMAP
00141000
01FEF400
02FFF000
00869000
00000000
001F0000
003F8000
007FD000
00FFE000
01FFF000
03FBF800
07F5FC00
0FF6FE00
1FFFFF00
2FFFFF80
7F556FC0
BE000FD0
7D000780
ENDCHAR
STARTCHAR Adieresis
ENCODING 196
SWIDTH 765 0
DWIDTH 14 0
BBX 14 18 0 0
BITMAP
01505400
03F1FC00
03F1FC00
0190A400
00000000
001F0000
003F8000
007FD000
00FFE000
01FFF000
03FBF800
07F5FC00
0FF6FE00
1FFFFF00
2FFFFF80
7F556FC0
BE000FD0
7D000780
ENDCHAR
STARTCHAR Aring
ENCODING 197
SWIDTH 765 0
DWIDTH 14 0
BBX 14 17 0 0
BITMAP
00050000
003B8000
0070C000
0075C000
002F4000
003F8000
007FD000
00FFE000
01FFF000
03FBF800
07F5FC00
0BF6FE00
1FFFFF00
2FFFFF80
7F556FC0
BE000FD0
7D000780
ENDCHAR
STARTCHAR AE
ENCODING 198
SWIDTH 1148 0
DWIDTH 21 0
BBX 21 14 0 0
BITMAP
000001555400
00002FFFFF00
00007FFFFF40
0001FFFFFE00
0007FFC00000
001FFFD54000
003FDFFFF000
00FF4FFFF400
02FE5FFFF000
0BFFFFC00000
2FFFFFD55400
BF955FFFFF00
FE000FFFFF40
78000BFFFF00
ENDCHAR
STARTCHAR Ccedilla
ENCODING 199
SWIDTH 679 0
DWIDTH 12 0
BBX 12 18 0 -4
BITMAP
000540
01BFF4
07FFFE
1FFFFE
3FD028
7F4000
7E0000
BE0000
7E0000
7F4000
2FE06C
1FFFFE
07FFFD
00BFE4
001F80
0006C0
001F80
000500
ENDCHAR
STARTCHAR Egrave
ENCODING 200
SWIDTH 638 0
DWIDTH 11 0
BBX 11 18 0 0
BITMAP
004000
01F900
02FF80
006F40
055650
3FFFFC
7FFFFC
7FFFF8
7F0000
7F5500
7FFFC0
7FFFC0
7FFF80
7F0000
7F5550
7FFFFC
7FFFFC
3FFFF8
ENDCHAR
STARTCHAR Eacute
ENCODING 201
SWIDTH 638 0
DWIDTH 11 0
BBX 11 18 0 0
BITMAP
000140
00AF80
01FF80
00F900
055550
3FFFFC
7FFFFC
7FFFF8
7F0000
7F5500
7FFFC0
7FFFC0
7FFF80
7F0000
7F5550
7FFFFC
7FFFFC
3FFFF8
ENDCHAR
STARTCHAR Ecircumflex
ENCODING 202
SWIDTH 638 0
DWIDTH 11 0
BBX 11 18 0 0
BITMAP
001400
06FF80
0BFFD0
069680
055550
3FFFFC
7FFFFC
7FFFF8
7F0000
7F5500
7FFFC0
7FFFC0
7FFF80
7F0000
7F5550
7FFFFC
7FFFFC
3FFFF8
ENDCHAR
STARTCHAR Edieresis
ENCODING 203
SWIDTH 638 0
DWIDTH 11 0
BBX 11 18 0 0
BITMAP
054150
0FC7F0
0FC7F0
064290
055550
3FFFFC
7FFFFC
7FFFF8
7F0000
7F5500
7FFFC0
7FFFC0
7FFF80
7F0000
7F5550
7FFFFC
7FFFFC
3FFFF8
ENDCHAR
STARTCHAR Igrave
ENCODING 204
SWIDTH 267 0
DWIDTH 5 0
BBX 6 18 -1 0
BITMAP
1000
BE40
BFD0
2FD0
0140
0FC0
1FC0
1FC0
1FC0
1FC0
1FC0
1FC0
1FC0
1FC0
1FC0
1FC0
1FC0
0B80
ENDCHAR
STARTCHAR Iacute
ENCODING 205
SWIDTH 269 0
DWIDTH 5 0
BBX 6 18 0 0
BITMAP
0140
2FE0
BFE0
7E40
0000
3F00
7F00
7F00
7F00
7F00
7F00
7F00
7F00
7F00
7F00
7F00
3F00
2E00
ENDCHAR
STARTCHAR Icircumflex
ENCODING 206
SWIDTH 270 0
DWIDTH 5 0
BBX 7 18 -1 0
BITMAP
0540
BFF4
FFFC
6474
0000
0FC0
1FC0
1FC0
1FC0
1FC0
1FC0
1FC0
1FC0
1FC0
1FC0
1FC0
0FC0
0B80
ENDCHAR
STARTCHAR Idieresis
ENCODING 207
SWIDTH 268 0
DWIDTH 5 0
BBX 9 18 -2 0
BITMAP
140500
BE2F40
BE2F40
291A00
000000
03F000
03F000
03F000
03F000
03F000
03F000
03F000
03F000
03F000
03F000
03F000
03F000
02E000
ENDCHAR
STARTCHAR Eth
ENCODING 208
SWIDTH 775 0
DWIDTH 14 0
BBX 14 14 0 0
BITMAP
01540000
0FFFE000
0FFFFD00
0FFFFF40
0FD07F80
0FD01FD0
6FF40BD0
BFF80BD0
2FE40FD0
0FD01FC0
0FD5BF80
0FFFFF00
0FFFFC00
0BFF9000
ENDCHAR
STARTCHAR Ntilde
ENCODING 209
SWIDTH 720 0
DWIDTH 13 0
BBX 13 18 0 0
BITMAP
00545000
02FEF000
03FFE000
01868000
00000000
3E002F00
7F803F40
7FD03F40
7FF03F40
7FF83F40
7FFE3F40
7F7F7F40
7F2FFF40
7F0BFF40
7F03FF40
7F01FF40
7F00BF40
3E002E00
ENDCHAR
STARTCHAR Ograve
ENCODING 210
SWIDTH 775 0
DWIDTH 14 0
BBX 14 18 0 -1
BITMAP
00BE4000
00FFD000
006FC000
00064000
01BFE400
07FFFD00
1FFFFF40
3FD07FC0
7F401FD0
7E000BD0
BE000BD0
7E000FD0
7F401FC0
3FD07F80
1FFFFF40
07FFFD00
01BFE400
00050000
ENDCHAR
STARTCHAR Oacute
ENCODING 211
SWIDTH 775 0
DWIDTH 14 0
BBX 14 19 0 -1
BITMAP
00005000
001BE000
007FF000
003E4000
00150000
01BFE400
07FFFD00
1FFFFF40
3FD07FC0
7F401FD0
7E000BD0
BE000BD0
7E000FD0
7F401FC0
3FD07F80
1FFFFF40
07FFFD00
01BFE400
00050000
ENDCHAR
STARTCHAR Ocircumflex
ENCODING 212
SWIDTH 775 0
DWIDTH 14 0
BBX 14 19 0 -1
BITMAP
00050000
01BFE400
01FFF800
00A5A000
00050000
01BFE400
07FFFD00
1FFFFF40
3FD07FC0
7F401FD0
7E000BD0
BE000BD0
7E000FD0
7F401FC0
3FD07F80
1FFFFF40
07FFFD00
01BFE400
00050000
ENDCHAR
STARTCHAR Otilde
ENCODING 213
SWIDTH 775 0
DWIDTH 14 0
BBX 14 19 0 -1
BITMAP
00141000
00BFBC00
00FFF800
00529000
00050000
01BFE400
07FFFD00
1FFFFF40
3FD07FC0
7F401FD0
7E000BD0
BE000BD0
7E000FD0
7F401FC0
3FD07F80
1FFFFF40
07FFFD00
01BFE400
00050000
ENDCHAR
STARTCHAR Odieresis
ENCODING 214
SWIDTH 775 0
DWIDTH 14 0
BBX 14 19 0 -1
BITMAP
01505400
03F1FC00
03F1FC00
0190A400
00050000
01BFE400
07FFFD00
1FFFFF40
3FD07FC0
7F401FD0
7E000BD0
BE000BD0
7E000FD0
7F401FC0
3FD07F80
1FFFFF40
07FFFD00
01BFE400
00050000
ENDCHAR
STARTCHAR multiply
ENCODING 215
SWIDTH 521 0
DWIDTH 9 0
BBX 9 9 0 0
BITMAP
280B40
7F2FC0
3FFF40
0FFD00
0BFC00
2FFF00
7FBF80
7D0F80
140100
ENDCHAR
STARTCHAR Oslash
ENCODING 216
SWIDTH 775 0
DWIDTH 14 0
BBX 14 15 0 -1
BITMAP
00057800
01BFFD00
07FFFD00
1FFFFF40
3FD3FFC0
7F4BFFD0
7E0FDFD0
BE2F8BD0
7E3F4FD0
7FBE1FD0
2FFD7F80
1FFFFF40
07FFFD00
07FFE400
02D10000
ENDCHAR
STARTCHAR Ugrave
ENCODING 217
SWIDTH 726 0
DWIDTH 13 0
BBX 13 18 0 -1
BITMAP
03F90000
03FF0000
01BF0000
04050400
3E002F40
7F003F40
7F003F40
7F003F40
7F003F40
7F003F40
7F003F40
7F003F40
3F407F00
2FD1FE00
1FFFFD00
07FFF800
01BFD000
00040000
ENDCHAR
STARTCHAR Uacute
ENCODING 218
SWIDTH 726 0
DWIDTH 13 0
BBX 13 19 0 -1
BITMAP
00005000
001BE000
007FF000
003E4000
04000400
3E002F40
7F003F40
7F003F40
7F003F40
7F003F40
7F003F40
7F003F40
7F003F40
3F407F00
2FD1FE00
1FFFFD00
07FFF800
01BFD000
00040000
ENDCHAR
STARTCHAR Ucircumflex
ENCODING 219
SWIDTH 726 0
DWIDTH 13 0
BBX 13 19 0 -1
BITMAP
00050000
01BFE000
02FFF400
01A5A000
04000400
3E002F40
7F003F40
7F003F40
7F003F40
7F003F40
7F003F40
7F003F40
7F003F40
3F407F00
2FD1FE00
1FFFFD00
07FFF800
01BFD000
00040000
ENDCHAR
STARTCHAR Udieresis
ENCODING 220
SWIDTH 726 0
DWIDTH 13 0
BBX 13 19 0 -1
BITMAP
01405000
07E2F800
07E2F800
0291A000
04000400
3E002F40
7F003F40
7F003F40
7F003F40
7F003F40
7F003F40
7F003F40
7F003F40
3F407F00
2FD1FE00
1FFFFD00
07FFF800
01BFD000
00040000
ENDCHAR
STARTCHAR Yacute
ENCODING 221
SWIDTH 686 0
DWIDTH 12 0
BBX 12 18 0 0
BITMAP
000140
006FC0
00FFC0
00B900
040004
7D003E
BF00BF
3F81FD
1FD3F8
0BFBF0
03FFD0
01FF80
00BF00
007E00
007E00
007E00
007E00
007D00
ENDCHAR
STARTCHAR Thorn
ENCODING 222
SWIDTH 634 0
DWIDTH 11 0
BBX 11 13 0 0
BITMAP
3E0000
7F5400
7FFF80
7FFFF0
7FAFF8
7F02F8
7F01FC
7F02F8
7FFFF4
7FFFE0
7FFF80
7F5000
3E0000
ENDCHAR
STARTCHAR germandbls
ENCODING 223
SWIDTH 633 0
DWIDTH 11 0
BBX 11 15 0 -1
BITMAP
016500
1FFF80
3FFFD0
7F4BD0
7F1FC0
7E2F40
7E3F00
7E2F80
7E1FF0
7E02F8
7E00FC
7E3EFC
7E7FF8
7E2FE0
190000
ENDCHAR
STARTCHAR agrave
ENCODING 224
SWIDTH 596 0
DWIDTH 11 0
BBX 10 14 0 0
BITMAP
02A400
03FF00
02FF00
001A00
015150
0BFFF0
2FFFF0
7FEFF0
7E0BF0
BE07F0
7F5BF0
3FFFF0
1FFFF0
06E6E0
ENDCHAR
STARTCHAR aacute
ENCODING 225
SWIDTH 596 0
DWIDTH 11 0
BBX 10 14 0 0
BITMAP
001B00
02FF40
02FE40
019000
015150
0BFFF0
2FFFF0
7FEFF0
7E0BF0
BE07F0
7F5BF0
3FFFF0
1FFFF0
06E6E0
ENDCHAR
STARTCHAR acircumflex
ENCODING 226
SWIDTH 596 0
DWIDTH 11 0
BBX 10 14 0 0
BITMAP
01B900
0BFFD0
07EFD0
014140
015150
0BFFF0
2FFFF0
7FEFF0
7E0BF0
BE07F0
7F5BF0
3FFFF0
1FFFF0
06E6E0
ENDCHAR
STARTCHAR atilde
ENCODING 227
SWIDTH 596 0
DWIDTH 11 0
BBX 10 14 0 0
BITMAP
01E580
07FFD0
0BAF80
010500
015150
0BFFF0
2FFFF0
7FEFF0
7E0BF0
BE07F0
7F5BF0
3FFFF0
1FFFF0
06E6E0
ENDCHAR
STARTCHAR adieresis
ENCODING 228
SWIDTH 596 0
DWIDTH 11 0
BBX 10 14 0 0
BITMAP
0B82E0
0FC7F0
0FC7E0
010040
015150
0BFFF0
2FFFF0
7FEFF0
7E0BF0
BE07F0
7F5BF0
3FFFF0
1FFFF0
06E6E0
ENDCHAR
STARTCHAR aring
ENCODING 229
SWIDTH 596 0
DWIDTH 11 0
BBX 10 14 0 0
BITMAP
001400
00A900
00C600
007D00
015150
0BFFF0
2FFFF0
7FEFF0
7E0BF0
BE07F0
7F5BF0
3FFFF0
1FFFF0
06E6E0
ENDCHAR
STARTCHAR ae
ENCODING 230
SWIDTH 910 0
DWIDTH 16 0
BBX 16 10 0 0
BITMAP
01A40650
2FFEBFF8
7FFFFFFD
3F5FF9BF
040BF5BF
1BFBFFFD
7EAFF550
BD1BFEBC
7FFFFFFD
2FF86FF8
ENDCHAR
STARTCHAR ccedilla
ENCODING 231
SWIDTH 524 0
DWIDTH 9 0
BBX 9 14 0 -4
BITMAP
01A900
0BFF80
2FFFC0
7FEF40
7F0100
7E0000
7F5A00
3FFF80
1FFF80
06FE00
01F800
006C00
01F800
005000
ENDCHAR
STARTCHAR egrave
ENCODING 232
SWIDTH 573 0
DWIDTH 10 0
BBX 10 15 0 -1
BITMAP
039000
07FE00
06FE00
001900
01A900
0BFF80
2FFFD0
7F9BE0
7F5BE0
BFFFD0
7F5540
3FEA80
1FFFD0
07FF80
001400
ENDCHAR
STARTCHAR eacute
ENCODING 233
SWIDTH 573 0
DWIDTH 10 0
BBX 10 15 0 -1
BITMAP
001A00
02FF40
03FE00
019000
01A900
0BFF80
2FFFD0
7F9BE0
7F5BE0
BFFFD0
7F5540
3FEA80
1FFFD0
07FF80
001400
ENDCHAR
STARTCHAR ecircumflex
ENCODING 234
SWIDTH 573 0
DWIDTH 10 0
BBX 10 15 0 -1
BITMAP
01B900
0FFF80
0FEF80
050100
01A900
0BFF80
2FFFD0
7F9BE0
7F5BE0
BFFFD0
7F5540
3FEA80
1FFFD0
07FF80
001400
ENDCHAR
STARTCHAR edieresis
ENCODING 235
SWIDTH 573 0
DWIDTH 10 0
BBX 10 15 0 -1
BITMAP
1E0B80
3F4FD0
2F4FC0
050100
01A900
0BFF80
2FFFD0
7F9BE0
7F5BE0
BFFFD0
7F5540
3FEA80
1FFFD0
07FF80
001400
ENDCHAR
STARTCHAR igrave
ENCODING 236
SWIDTH 255 0
DWIDTH 5 0
BBX 6 14 -1 0
BITMAP
7900
BFD0
7FD0
0680
0500
1F80
1FC0
1FC0
1FC0
1FC0
1FC0
1FC0
1FC0
0F80
ENDCHAR
STARTCHAR iacute
ENCODING 237
SWIDTH 255 0
DWIDTH 5 0
BBX 6 14 0 0
BITMAP
06C0
7FE0
BF90
6400
1400
7E00
7F00
7F00
7F00
7F00
7F00
7F00
7F00
3E00
ENDCHAR
STARTCHAR icircumflex
ENCODING 238
SWIDTH 255 0
DWIDTH 5 0
BBX 7 14 -1 0
BITMAP
1B90
FFF8
FEF8
5010
0500
1F80
1FC0
1FC0
1FC0
1FC0
1FC0
1FC0
1FC0
0F80
ENDCHAR
STARTCHAR idieresis
ENCODING 239
SWIDTH 255 0
DWIDTH 5 0
BBX 9 14 -2 0
BITMAP
791E00
BD3F40
BD2F40
140500
014000
07F000
07F000
07F000
07F000
07F000
07F000
07F000
07F000
03E000
ENDCHAR
STARTCHAR eth
ENCODING 240
SWIDTH 585 0
DWIDTH 11 0
BBX 10 15 0 0
BITMAP
000400
02AC00
03F800
02FE00
03EF80
0157C0
07FFE0
1FFFE0
3FEFF0
7E07F0
BE03F0
7F0BF0
3FFFD0
1FFF80
06FE00
ENDCHAR
STARTCHAR ntilde
ENCODING 241
SWIDTH 606 0
DWIDTH 11 0
BBX 11 14 0 0
BITMAP
02E280
0BFFC0
0FBF40
010400
151500
7FFF80
7FFFD0
7FEFF0
7F07F0
7F03F4
7F03F4
7F03F4
7F03F4
3E02E0
ENDCHAR
STARTCHAR ograve
ENCODING 242
SWIDTH 600 0
DWIDTH 11 0
BBX 11 14 0 0
BITMAP
029000
07FE00
02FF00
001900
01A900
0BFF80
2FFFD0
7FAFF0
7E03F4
BE03F4
7F47F0
3FFFE0
1FFFC0
06FE00
ENDCHAR
STARTCHAR oacute
ENCODING 243
SWIDTH 600 0
DWIDTH 11 0
BBX 11 14 0 0
BITMAP
001B00
02FF40
02FE40
019000
01A900
0BFF80
2FFFD0
7FAFF0
7E03F4
BE03F4
7F47F0
3FFFE0
1FFFC0
06FE00
ENDCHAR
STARTCHAR ocircumflex
ENCODING 244
SWIDTH 600 0
DWIDTH 11 0
BBX 11 14 0 0
BITMAP
01B900
0FFFC0
0FEF80
010100
01A900
0BFF80
2FFFD0
7FAFF0
7E03F4
BE03F4
7F47F0
3FFFE0
1FFFC0
06FE00
ENDCHAR
STARTCHAR otilde
ENCODING 245
SWIDTH 600 0
DWIDTH 11 0
BBX 11 14 0 0
BITMAP
02E280
0FFFC0
0FBF40
000400
01A900
0BFF80
2FFFD0
7FAFF0
7E03F4
BE03F4
7F47F0
3FFFE0
1FFFC0
06FE00
ENDCHAR
STARTCHAR odieresis
ENCODING 246
SWIDTH 600 0
DWIDTH 11 0
BBX 11 14 0 0
BITMAP
1E4780
2F4FD0
2F4BD0
050140
01A900
0BFF80
2FFFD0
7FAFF0
7E03F4
BE03F4
7F47F0
3FFFE0
1FFFC0
06FE00
ENDCHAR
STARTCHAR divide
ENCODING 247
SWIDTH 503 0
DWIDTH 9 0
BBX 9 10 0 0
BITMAP
01A000
03F000
02E000
155500
7FFF40
7FFF80
155500
02E000
03F000
02E000
ENDCHAR
STARTCHAR oslash
ENCODING 248
SWIDTH 600 0
DWIDTH 11 0
BBX 11 15 0 -3
BITMAP
0003E0
000BE0
01AFD0
0BFFC0
2FFFD0
7FAFF0
7E03F4
BE03F4
7F47F0
3FFFE0
1FFFC0
1FFE00
2F8000
3F0000
190000
ENDCHAR
STARTCHAR ugrave
ENCODING 249
SWIDTH 606 0
DWIDTH 11 0
BBX 11 14 0 0
BITMAP
029000
07FE00
02FF00
001900
150150
7E03F0
7F03F4
7F03F4
7F03F4
7F03F4
3F9BF4
2FFFF4
1FFFF4
06F6E0
ENDCHAR
STARTCHAR uacute
ENCODING 250
SWIDTH 606 0
DWIDTH 11 0
BBX 11 14 0 0
BITMAP
001B40
01FF80
01FF40
009000
150150
7E03F0
7F03F4
7F03F4
7F03F4
7F03F4
3F9BF4
2FFFF4
1FFFF4
06F6E0
ENDCHAR
STARTCHAR ucircumflex
ENCODING 251
SWIDTH 606 0
DWIDTH 11 0
BBX 11 14 0 0
BITMAP
01B900
0FFFC0
0BEFC0
010140
150150
7E03F0
7F03F4
7F03F4
7F03F4
7F03F4
3F9BF4
2FFFF4
1FFFF4
06F6E0
ENDCHAR
STARTCHAR udieresis
ENCODING 252
SWIDTH 606 0
DWIDTH 11 0
BBX 11 14 0 0
BITMAP
1F4780
2F8BD0
2F4BD0
050140
150150
7E03F0
7F03F4
7F03F4
7F03F4
7F03F4
3F9BF4
2FFFF4
1FFFF4
06F6E0
ENDCHAR
STARTCHAR yacute
ENCODING 253
SWIDTH 604 0
DWIDTH 11 0
BBX 11 19 0 -5
BITMAP
001B40
01FF80
01FE40
009000
180090
BE02F4
7F03F4
3F87F0
1FDFD0
0BFFC0
03FF80
02FF00
00FE00
00FD00
02F800
03F400
07F000
07D000
004000
ENDCHAR
STARTCHAR thorn
ENCODING 254
SWIDTH 580 0
DWIDTH 10 0
BBX 10 18 0 -4
BITMAP
3D0000
7E0000
7E0000
7E0000
7E5400
7FFF40
7FFFC0
7FEFE0
7F07F0
7E07F0
7F5BE0
7FFFD0
7FFF80
7EBD00
7E0000
7E0000
7E0000
3D0000
ENDCHAR
STARTCHAR ydieresis
ENCODING 255
SWIDTH 604 0
DWIDTH 11 0
BBX 11 19 0 -5
BITMAP
0B47D0
1F8BE0
1F87E0
050140
180090
BE02F4
7F03F4
3F87F0
1FDFD0
0BFFC0
03FF80
02FF00
00FE00
00FD00
02F800
03F400
07F000
07D000
004000
ENDCHAR
STARTCHAR dotlessi
ENCODING 305
SWIDTH 255 0
DWIDTH 5 0
BBX 4 10 0 0
BITMAP
14
7E
7F
7F
7F
7F
7F
7F
7F
3E
ENDCHAR
STARTCHAR Lslash
ENCODING 321
SWIDTH 687 0
DWIDTH 12 0
BBX 12 13 0 0
BITMAP
07E000
07E000
07E000
07E000
07FB00
1BFF40
7FF900
7FE000
07E000
07E000
07FAA9
07FFFF
07FFFE
ENDCHAR
STARTCHAR lslash
ENCODING 322
SWIDTH 468 0
DWIDTH 8 0
BBX 8 14 0 0
BITMAP
07D0
0BE0
0BE0
0BE0
0BE0
0BEA
1FFF
BFF9
7FE0
0BE0
0BE0
0BFC
07FD
02FC
ENDCHAR
STARTCHAR OE
ENCODING 338
SWIDTH 1092 0
DWIDTH 20 0
BBX 20 14 0 0
BITMAP
0001555550
01BFFFFFFC
07FFFFFFFD
1FFFFFFFFC
3FD03F0000
7F403F5500
7E003FFFC0
BE003FFFD0
7F003FFFC0
7F403F0000
2FE47F5550
1FFFFFFFFC
07FFFFFFFD
006FFFFFFC
ENDCHAR
STARTCHAR oe
ENCODING 339
SWIDTH 944 0
DWIDTH 17 0
BBX 17 11 0 -1
BITMAP
01A9069000
0BFFAFFD00
2FFFFFFF00
7FAFFD6F40
7E03F96F40
BE03FFFF00
7F47F95400
3FFFFEAE00
1FFFFFFF00
06FE1FF900
0010000000
ENDCHAR
STARTCHAR Scaron
ENCODING 352
SWIDTH 583 0
DWIDTH 11 0
BBX 10 18 0 0
BITMAP
050500
0FEF80
1FFF80
01A900
005400
0BFF40
2FFFD0
3FAFC0
7F0100
7F9000
2FFE40
0BFFD0
01BFE0
1407F0
7E07F0
7FEFE0
2FFFC0
07FE00
ENDCHAR
STARTCHAR scaron
ENCODING 353
SWIDTH 489 0
DWIDTH 9 0
BBX 9 14 0 0
BITMAP
296D00
7FFE00
2FF900
014000
06A400
2FFE00
3FFE00
7E0400
3FF800
1FFF00
05BF40
3E6F40
7FFF00
1FF900
ENDCHAR
STARTCHAR Ydieresis
ENCODING 376
SWIDTH 686 0
DWIDTH 12 0
BBX 12 18 0 0
BITMAP
054150
0BD3F0
0FD3F4
0681A0
040004
7D003E
BF00BF
3F81FD
1FD3F8
0BFBF0
03FFD0
01FF80
00BF00
007E00
007E00
007E00
007E00
007D00
ENDCHAR
STARTCHAR Zcaron
ENCODING 381
SWIDTH 643 0
DWIDTH 12 0
BBX 11 18 0 0
BITMAP
014140
0BEFD0
0BFFD0
01A900
055540
7FFFF8
BFFFF8
7FFFF4
001FE0
003FC0
00BF40
01FE00
03F800
0BF000
2FD000
7FFFFC
7FFFFC
3FFFF8
ENDCHAR
STARTCHAR zcaron
ENCODING 382
SWIDTH 586 0
DWIDTH 11 0
BBX 10 14 0 0
BITMAP
0A4A40
0FFFC0
0BFF40
005400
155540
3FFFE0
3FFFE0
1ABFD0
00FF00
07F800
1FF500
7FFFF0
7FFFF0
3FFFE0
ENDCHAR
STARTCHAR florin
ENCODING 402
SWIDTH 529 0
DWIDTH 10 0
BBX 10 18 0 -4
BITMAP
000140
002FD0
00BFD0
00FE80
01F800
1FFF80
2FFFD0
1FFFC0
07F500
03F400
03F000
03F000
07F000
07E000
0BE000
7FD000
FF8000
BE0000
ENDCHAR
STARTCHAR circumflex
ENCODING 710
SWIDTH 603 0
DWIDTH 11 0
BBX 7 4 2 10
BITMAP
1B90
FFFC
FEF8
1010
ENDCHAR
STARTCHAR caron
ENCODING 711
SWIDTH 600 0
DWIDTH 11 0
BBX 7 4 2 10
BITMAP
A4B4
FFFC
BFF4
0540
ENDCHAR
STARTCHAR dotaccent
ENCODING 729
SWIDTH 285 0
DWIDTH 5 0
BBX 4 4 1 12
BITMAP
68
FD
BC
14
ENDCHAR
STARTCHAR ring
ENCODING 730
SWIDTH 378 0
DWIDTH 7 0
BBX 5 5 1 12
BITMAP
1500
7B40
D280
A680
7E00
ENDCHAR
STARTCHAR ogonek
ENCODING 731
SWIDTH 570 0
DWIDTH 10 0
BBX 4 5 3 -4
BITMAP
14
BE
B4
BE
14
ENDCHAR
STARTCHAR tilde
ENCODING 732
SWIDTH 584 0
DWIDTH 11 0
BBX 8 4 1 10
BITMAP
1E59
7FFD
7AF8
1050
ENDCHAR
STARTCHAR endash
ENCODING 8211
SWIDTH 561 0
DWIDTH 10 0
BBX 10 4 0 3
BITMAP
155540
BFFFE0
BFFFE0
2AAA90
ENDCHAR
STARTCHAR emdash
ENCODING 8212
SWIDTH 693 0
DWIDTH 12 0
BBX 12 4 0 3
BITMAP
155555
BFFFFF
BFFFFF
2AAAA9
ENDCHAR
STARTCHAR quoteleft
ENCODING 8216
SWIDTH 237 0
DWIDTH 4 0
BBX 4 6 0 7
BITMAP
1E
3C
78
7E
BE
7E
ENDCHAR
STARTCHAR quoteright
ENCODING 8217
SWIDTH 237 0
DWIDTH 4 0
BBX 4 6 0 7
BITMAP
7E
BE
7E
1D
2C
74
ENDCHAR
STARTCHAR quotesinglbase
ENCODING 8218
SWIDTH 237 0
DWIDTH 4 0
BBX 4 7 0 -3
BITMAP
14
7E
BE
7E
1D
7C
64
ENDCHAR
STARTCHAR quotedblleft
ENCODING 8220
SWIDTH 482 0
DWIDTH 9 0
BBX 9 6 0 7
BITMAP
1E0B00
3C1D00
783D00
7E3F00
BE3F40
7E2E00
ENDCHAR
STARTCHAR quotedblright
ENCODING 8221
SWIDTH 482 0
DWIDTH 9 0
BBX 9 7 0 7
BITMAP
000400
7E3F00
BE3F40
7E3F00
1D0F00
2C2D00
743800
ENDCHAR
STARTCHAR quotedblbase
ENCODING 8222
SWIDTH 482 0
DWIDTH 9 0
BBX 9 7 0 -3
BITMAP
140500
7E3F00
BE3F40
7E2F00
1D0E00
7C2D00
642400
ENDCHAR
STARTCHAR dagger
ENCODING 8224
SWIDTH 527 0
DWIDTH 9 0
BBX 10 18 0 -4
BITMAP
005000
02F400
02F400
02F400
13F500
BFFFC0
BFFFD0
6BFA40
02F400
02F400
02F400
02F400
02F400
02F400
02F400
02F400
02F400
005000
ENDCHAR
STARTCHAR daggerdbl
ENCODING 8225
SWIDTH 527 0
DWIDTH 9 0
BBX 10 18 0 -4
BITMAP
005000
02F400
02F400
02F400
13F500
BFFFC0
BFFFD0
6BFA40
02F400
02F400
6BFA80
BFFFD0
BFFFC0
02F400
02F400
02F400
02F400
005000
ENDCHAR
STARTCHAR bullet
ENCODING 8226
SWIDTH 342 0
DWIDTH 6 0
BBX 6 6 0 3
BITMAP
0500
3FC0
7FE0
BFE0
7FD0
2F80
ENDCHAR
STARTCHAR ellipsis
ENCODING 8230
SWIDTH 911 0
DWIDTH 16 0
BBX 16 4 0 0
BITMAP
14014014
7E07E07E
BE07F07F
7E07E03E
ENDCHAR
STARTCHAR perthousand
ENCODING 8240
SWIDTH 1223 0
DWIDTH 22 0
BBX 22 15 0 -1
BITMAP
01000A000000
1FE01D000000
3FF43C000000
787874000000
7878F0000000
3EF9D0000000
1FF380000000
054B4A402900
000E3FE0FF80
002D7AF6EBC0
0038B4B6D2D0
00B0B9B6D7D0
00E07FF1FFC0
02C01F907E40
014000000000
ENDCHAR
STARTCHAR guilsinglleft
ENCODING 8249
SWIDTH 383 0
DWIDTH 7 0
BBX 7 10 0 0
BITMAP
0050
01F4
07F4
1FE0
7F80
BF40
3FD0
0FF4
03F8
00A0
ENDCHAR
STARTCHAR guilsinglright
ENCODING 8250
SWIDTH 383 0
DWIDTH 7 0
BBX 7 10 0 0
BITMAP
1400
7D00
BF40
2FD0
0BF4
07F8
1FE0
7F80
BE00
2800
ENDCHAR
STARTCHAR fraction
ENCODING 8260
SWIDTH 433 0
DWIDTH 8 0
BBX 9 15 1 -1
BITMAP
000740
000B00
001D00
003C00
007400
00E000
01D000
038000
0B4000
0E0000
2D0000
380000
B00000
E00000
400000
ENDCHAR
STARTCHAR Euro
ENCODING 8364
SWIDTH 612 0
DWIDTH 11 0
BBX 11 14 0 0
BITMAP
006BE4
02FFF8
07FFF4
0BF550
1FE540
BFFFE0
6FEA90
6FD540
BFFFE0
5FE540
0BE540
07FFF4
02FFF8
006FF4
ENDCHAR
STARTCHAR trademark
ENCODING 8482
SWIDTH 840 0
DWIDTH 15 0
BBX 15 8 0 4
BITMAP
55544010
BFFAE0F4
6FE6F6F4
0B82FFF4
0B82FFF4
0B82EEF4
0B82E0B4
06419064
ENDCHAR
STARTCHAR minus
ENCODING 8722
SWIDTH 581 0
DWIDTH 10 0
BBX 10 4 0 3
BITMAP
155540
7FFFF0
7FFFF0
1AAA90
ENDCHAR
STARTCHAR f_f
ENCODING 64256
SWIDTH 803 0
DWIDTH 14 0
BBX 14 14 0 0
BITMAP
01BC0BD0
07FD3FE0
0FFD7FE0
0FD0BE00
1FD5BE50
BFFFFFF0
BFFFFFF0
6FEAFE90
0FC0BD00
0FC0BD00
0FC0BD00
0FC0BD00
0FC0BD00
0B807D00
ENDCHAR
STARTCHAR fi
ENCODING 64257
SWIDTH 709 0
DWIDTH 13 0
BBX 12 14 0 0
BITMAP
01BC2E
07FD3F
0BFD3F
0FD004
1FD415
BFFE3F
BFFE3F
6FE93F
0FC03F
0FC03F
0FC03F
0FC03F
0FC03F
0B802E
ENDCHAR
STARTCHAR fl
ENCODING 64258
SWIDTH 774 0
DWIDTH 14 0
BBX 14 14 0 0
BITMAP
01BC2E00
07FD7F00
0BFD7F00
0FD07F00
1FD47F00
BFFE7F00
BFFE7F00
6FE97F00
0FC07F00
0FC07F00
0FC07F00
0FC03FD0
0FC03FE0
0B801BD0
ENDCHAR
STARTCHAR f_f_i
ENCODING 64259
SWIDTH 1059 0
DWIDTH 19 0
BBX 19 14 0 0
BITMAP
01BC0BD1A0
07FD3FE2F4
0FFD7FE2F4
0FD0BE0050
1FD5BE5050
BFFFFFF2F4
BFFFFFF2F4
6FEAFE92F4
0FC0BD02F4
0FC0BD02F4
0FC0BD02F4
0FC0BD02F4
0FC0BD02F4
0B807D02F0
ENDCHAR
STARTCHAR .notdef
ENCODING -1
SWIDTH 500 0
DWIDTH 9 0
BBX 1 1 0 0
BITMAP
00
ENDCHAR
STARTCHAR .null
ENCODING -1
SWIDTH 0 0
DWIDTH 0 0
BBX 1 1 0 0
BITMAP
00
ENDCHAR
STARTCHAR nonmarkingreturn
ENCODING -1
SWIDTH 333 0
DWIDTH 6 0
BBX 1 1 0 0
BITMAP
00
ENDCHAR
STARTCHAR f_t
ENCODING -1
SWIDTH 814 0
DWIDTH 15 0
BBX 15 14 0 0
BITMAP
01BC0000
07FD2900
0FFD7E00
0FD0BE00
1FD5BE50
BFFFFFF4
BFFFFFF4
6FEABFA0
0FC0BE00
0FC0BE00
0FC07E00
0FC07FE0
0FC03FF0
0B800BE0
ENDCHAR
STARTCHAR t_t
ENCODING -1
SWIDTH 794 0
DWIDTH 14 0
BBX 14 13 0 0
BITMAP
06406800
0FC0FD00
0FC0FD00
1FD5FE50
BFFFFFF0
BFFFFFF0
6FEAFE90
0FC0FD00
0FC0FD00
0FC0BD00
0FFCBFD0
07FD7FD0
01BC1BD0
ENDCHAR
STARTCHAR l_l
ENCODING -1
SWIDTH 626 0
DWIDTH 11 0
BBX 11 14 0 0
BITMAP
2E1F40
7F1F80
7F1F80
7F1F80
7F1F80
7F1F80
7F1F80
7F1F80
7F1F80
7F1F80
7F1FD0
7FDFF8
3FDBFC
1B82F8
ENDCHAR
STARTCHAR j_j
ENCODING -1
SWIDTH 521 0
DWIDTH 9 0
BBX 12 18 -3 -4
BITMAP
00A429
01F87E
01F87E
001014
005014
01F87E
01F87E
01F87E
01F87E
01F87E
01F87E
01F87E
01F87E
01F87E
02F8BE
3FF6FD
7FE7FC
7F43F4
ENDCHAR
ENDFONT
